<svg width="164" height="48" viewBox="0 0 164 48" fill="none" xmlns="http://www.w3.org/2000/svg">
<mask id="mask0_62_101" style="mask-type:alpha" maskUnits="userSpaceOnUse" x="0" y="0" width="164" height="48">
<rect width="164" height="48" fill="#01BB72"/>
</mask>
<g mask="url(#mask0_62_101)">
<rect width="139" height="66" fill="#01BB72"/>
<path d="M136.5 72L105.756 -9L167.244 -9L136.5 72Z" fill="#074444"/>
</g>
<path d="M55.9727 41.6954C55.25 41.6954 54.5892 41.5131 53.9902 41.1486C53.3978 40.784 52.9258 40.2957 52.5742 39.6837C52.2292 39.0652 52.0566 38.3784 52.0566 37.6232L52.0762 31.3829C52.0762 30.6407 52.2454 29.9702 52.584 29.3712C52.9225 28.7657 53.388 28.2807 53.9805 27.9161C54.5794 27.545 55.2435 27.3595 55.9727 27.3595C56.7148 27.3595 57.3757 27.5385 57.9551 27.8966C58.541 28.2547 59.0065 28.7397 59.3516 29.3517C59.7031 29.9572 59.8789 30.6342 59.8789 31.3829V32.3009C59.8789 32.353 59.8529 32.379 59.8008 32.379H57.5547C57.5026 32.379 57.4766 32.353 57.4766 32.3009V31.3829C57.4766 30.9402 57.3333 30.5594 57.0469 30.2404C56.7604 29.9213 56.4023 29.7618 55.9727 29.7618C55.4974 29.7618 55.1328 29.9246 54.8789 30.2501C54.625 30.5756 54.498 30.9532 54.498 31.3829V37.6232C54.498 38.1115 54.6413 38.5118 54.9277 38.8243C55.2142 39.1303 55.5625 39.2833 55.9727 39.2833C56.4023 39.2833 56.7604 39.1141 57.0469 38.7755C57.3333 38.4305 57.4766 38.0463 57.4766 37.6232V36.6954C57.4766 36.6434 57.5026 36.6173 57.5547 36.6173H59.8203C59.8724 36.6173 59.8984 36.6434 59.8984 36.6954V37.6232C59.8984 38.3719 59.7227 39.0555 59.3711 39.674C59.013 40.2859 58.541 40.7775 57.9551 41.1486C57.3691 41.5131 56.7083 41.6954 55.9727 41.6954ZM66.752 41.6954C66.0423 41.6954 65.388 41.5131 64.7891 41.1486C64.1966 40.784 63.7214 40.299 63.3633 39.6935C63.0117 39.0815 62.8359 38.4109 62.8359 37.6818V36.7638C62.8359 36.6922 62.8685 36.6564 62.9336 36.6564H65.1797C65.2318 36.6564 65.2578 36.6922 65.2578 36.7638V37.6818C65.2578 38.118 65.4043 38.4956 65.6973 38.8146C65.9902 39.1271 66.3418 39.2833 66.752 39.2833C67.1686 39.2833 67.5234 39.1238 67.8164 38.8048C68.1094 38.4793 68.2559 38.1049 68.2559 37.6818C68.2559 37.1935 67.9368 36.767 67.2988 36.4025C67.1947 36.3374 67.0579 36.2592 66.8887 36.1681C66.7259 36.0704 66.5306 35.9598 66.3027 35.8361C66.0749 35.7124 65.8535 35.5919 65.6387 35.4747C65.4238 35.351 65.2155 35.2338 65.0137 35.1232C64.2845 34.6935 63.7409 34.1564 63.3828 33.5118C63.0312 32.8608 62.8555 32.1316 62.8555 31.3243C62.8555 30.5822 63.0378 29.9116 63.4023 29.3126C63.7669 28.7202 64.2422 28.2514 64.8281 27.9064C65.4206 27.5548 66.0618 27.379 66.752 27.379C67.4616 27.379 68.1126 27.5548 68.7051 27.9064C69.2975 28.2644 69.7695 28.7397 70.1211 29.3322C70.4792 29.9246 70.6582 30.5887 70.6582 31.3243V32.965C70.6582 33.017 70.6322 33.0431 70.5801 33.0431H68.334C68.2819 33.0431 68.2559 33.017 68.2559 32.965L68.2363 31.3243C68.2363 30.8556 68.0898 30.4747 67.7969 30.1818C67.5039 29.8888 67.1556 29.7423 66.752 29.7423C66.3418 29.7423 65.9902 29.8986 65.6973 30.2111C65.4043 30.5236 65.2578 30.8947 65.2578 31.3243C65.2578 31.7605 65.349 32.1251 65.5312 32.4181C65.7201 32.7111 66.0618 32.991 66.5566 33.2579C66.6087 33.284 66.7292 33.3491 66.918 33.4532C67.1068 33.5574 67.3151 33.6746 67.543 33.8048C67.7773 33.9285 67.9889 34.0424 68.1777 34.1466C68.3665 34.2443 68.4805 34.3029 68.5195 34.3224C69.1836 34.6935 69.7077 35.1492 70.0918 35.6896C70.4824 36.2299 70.6777 36.894 70.6777 37.6818C70.6777 38.4435 70.502 39.1271 70.1504 39.7325C69.7923 40.338 69.3171 40.8165 68.7246 41.1681C68.1322 41.5197 67.4746 41.6954 66.752 41.6954ZM72.9805 41.4025L75.4609 27.6622C75.474 27.6101 75.5065 27.5841 75.5586 27.5841H78.459C78.5111 27.5841 78.5436 27.6101 78.5566 27.6622L80.9395 41.4025C80.946 41.4676 80.9199 41.5001 80.8613 41.5001H78.6445C78.5794 41.5001 78.5436 41.4676 78.5371 41.4025L78.3223 39.9376H75.5977L75.3828 41.4025C75.3763 41.4676 75.3438 41.5001 75.2852 41.5001H73.0586C73.0065 41.5001 72.9805 41.4676 72.9805 41.4025ZM76.8965 32.1837L75.998 37.799H77.9219L77.1016 32.1837L76.9844 31.4415L76.8965 32.1837ZM87.2461 41.5001H84.9902C84.9316 41.5001 84.9023 41.4676 84.9023 41.4025V29.9962H82.3047C82.2396 29.9962 82.207 29.9637 82.207 29.8986L82.2266 27.6622C82.2266 27.6101 82.2526 27.5841 82.3047 27.5841H89.9023C89.974 27.5841 90.0098 27.6101 90.0098 27.6622V29.8986C90.0098 29.9637 89.9837 29.9962 89.9316 29.9962H87.3047L87.3242 41.4025C87.3242 41.4676 87.2982 41.5001 87.2461 41.5001Z" fill="white"/>
<g clip-path="url(#clip0_62_101)">
<path d="M86.675 16.0784L82.4894 25.219C81.6568 25.219 80.8583 24.898 80.2696 24.3266C79.6809 23.7552 79.3502 22.9802 79.3502 22.1721V18.1096H73.4275C73.1242 18.1129 72.8237 18.0522 72.5469 17.9316C72.2701 17.8111 72.0237 17.6335 71.8246 17.4113C71.6255 17.1891 71.4786 16.9276 71.394 16.6448C71.3094 16.362 71.2892 16.0648 71.3347 15.7737L72.7788 6.63305C72.8544 6.1487 73.1079 5.7072 73.4925 5.38993C73.8771 5.07265 74.3669 4.90096 74.8716 4.9065H86.675M86.675 16.0784V4.9065M86.675 16.0784H89.4689C90.0611 16.0885 90.6365 15.8873 91.086 15.5128C91.5354 15.1384 91.8276 14.6168 91.907 14.0471V6.93774C91.8276 6.36804 91.5354 5.84646 91.086 5.47201C90.6365 5.09757 90.0611 4.89633 89.4689 4.9065H86.675" stroke="white" stroke-width="3" stroke-linecap="round" stroke-linejoin="round"/>
</g>
<path d="M47.6364 40.3749V36.6249C47.6364 34.6358 46.8223 32.7282 45.3731 31.3217C43.924 29.9151 41.9585 29.125 39.9091 29.125H24.4546C22.4052 29.125 20.4397 29.9151 18.9906 31.3217C17.5414 32.7282 16.7273 34.6358 16.7273 36.6249V40.3749M39.9091 14.125C39.9091 18.2671 36.4495 21.625 32.1818 21.625C27.9142 21.625 24.4546 18.2671 24.4546 14.125C24.4546 9.98286 27.9142 6.625 32.1818 6.625C36.4495 6.625 39.9091 9.98286 39.9091 14.125Z" stroke="white" stroke-width="4" stroke-linecap="round" stroke-linejoin="round"/>
<path d="M53.0294 14.047L57.215 4.90637C58.0475 4.90637 58.846 5.22738 59.4347 5.79878C60.0234 6.37018 60.3542 7.14516 60.3542 7.95324V12.0157H66.2768C66.5802 12.0124 66.8807 12.0731 67.1574 12.1937C67.4342 12.3143 67.6807 12.4918 67.8798 12.714C68.0788 12.9362 68.2257 13.1977 68.3103 13.4805C68.3949 13.7633 68.4151 14.0605 68.3696 14.3517L66.9256 23.4923C66.8499 23.9766 66.5964 24.4181 66.2118 24.7354C65.8273 25.0527 65.3375 25.2244 64.8328 25.2188H53.0294M53.0294 14.047V25.2188M53.0294 14.047H49.8902C49.3351 14.047 48.8028 14.261 48.4103 14.6419C48.0179 15.0229 47.7974 15.5395 47.7974 16.0782V23.1876C47.7974 23.7263 48.0179 24.243 48.4103 24.6239C48.8028 25.0048 49.3351 25.2188 49.8902 25.2188H53.0294" stroke="white" stroke-width="3" stroke-linecap="round" stroke-linejoin="round"/>
<defs>
<clipPath id="clip0_62_101">
<rect width="25.1136" height="24.375" fill="white" transform="translate(68.8862 2.87524)"/>
</clipPath>
</defs>
</svg>
